<svg width="71" height="100" viewBox="0 0 71 100" fill="none" xmlns="http://www.w3.org/2000/svg">
<g filter="url(#filter0_d_1_561)">
<path d="M67 29.1667H37C35.6193 29.1667 34.5 30.286 34.5 31.6667V58.3334C34.5 59.7141 35.6193 60.8334 37 60.8334H67C68.3807 60.8334 69.5 59.7141 69.5 58.3334V31.6667C69.5 30.286 68.3807 29.1667 67 29.1667Z" fill="#1D509C"/>
</g>
<path d="M67 29.1667H37C35.6193 29.1667 34.5 30.286 34.5 31.6667V55C34.5 56.3807 35.6193 57.5 37 57.5H67C68.3807 57.5 69.5 56.3807 69.5 55V31.6667C69.5 30.286 68.3807 29.1667 67 29.1667Z" fill="#3179E4"/>
<path d="M63.6667 36.6667H49.5C49.279 36.6667 49.067 36.5789 48.9107 36.4226C48.7545 36.2663 48.6667 36.0543 48.6667 35.8333C48.6667 35.6123 48.7545 35.4004 48.9107 35.2441C49.067 35.0878 49.279 35 49.5 35H63.6667C63.8877 35 64.0996 35.0878 64.2559 35.2441C64.4122 35.4004 64.5 35.6123 64.5 35.8333C64.5 36.0543 64.4122 36.2663 64.2559 36.4226C64.0996 36.5789 63.8877 36.6667 63.6667 36.6667Z" fill="#F9F6F6"/>
<path d="M58.6667 40.8333H49.5C49.279 40.8333 49.067 40.7455 48.9107 40.5892C48.7545 40.433 48.6667 40.221 48.6667 40C48.6667 39.779 48.7545 39.567 48.9107 39.4107C49.067 39.2545 49.279 39.1667 49.5 39.1667H58.6667C58.8877 39.1667 59.0996 39.2545 59.2559 39.4107C59.4122 39.567 59.5 39.779 59.5 40C59.5 40.221 59.4122 40.433 59.2559 40.5892C59.0996 40.7455 58.8877 40.8333 58.6667 40.8333Z" fill="#F9F6F6"/>
<path d="M42.225 40.6667C42.0264 40.6667 41.8343 40.5958 41.6833 40.4667L39.7916 38.8667C39.6237 38.723 39.5197 38.5185 39.5025 38.2981C39.4853 38.0778 39.5563 37.8596 39.7 37.6917C39.8436 37.5237 40.0481 37.4197 40.2685 37.4025C40.4889 37.3853 40.707 37.4563 40.875 37.6L42.1 38.6333L44.675 35.3C44.8147 35.1404 45.0101 35.0401 45.2212 35.0196C45.4323 34.999 45.6433 35.0598 45.8112 35.1894C45.9791 35.319 46.0913 35.5078 46.1248 35.7173C46.1583 35.9267 46.1107 36.1411 45.9917 36.3167L42.8833 40.3167C42.8139 40.4056 42.7271 40.4796 42.6283 40.534C42.5295 40.5884 42.4206 40.6222 42.3083 40.6333L42.225 40.6667Z" fill="#F9F6F6"/>
<path d="M63.6667 46.6667H49.5C49.279 46.6667 49.067 46.5789 48.9107 46.4226C48.7545 46.2663 48.6667 46.0543 48.6667 45.8333C48.6667 45.6123 48.7545 45.4004 48.9107 45.2441C49.067 45.0878 49.279 45 49.5 45H63.6667C63.8877 45 64.0996 45.0878 64.2559 45.2441C64.4122 45.4004 64.5 45.6123 64.5 45.8333C64.5 46.0543 64.4122 46.2663 64.2559 46.4226C64.0996 46.5789 63.8877 46.6667 63.6667 46.6667Z" fill="#F9F6F6"/>
<path d="M58.6667 50.8333H49.5C49.279 50.8333 49.067 50.7455 48.9107 50.5892C48.7545 50.433 48.6667 50.221 48.6667 50C48.6667 49.779 48.7545 49.567 48.9107 49.4107C49.067 49.2545 49.279 49.1667 49.5 49.1667H58.6667C58.8877 49.1667 59.0996 49.2545 59.2559 49.4107C59.4122 49.567 59.5 49.779 59.5 50C59.5 50.221 59.4122 50.433 59.2559 50.5892C59.0996 50.7455 58.8877 50.8333 58.6667 50.8333Z" fill="#F9F6F6"/>
<path d="M42.225 50.6667C42.0264 50.6667 41.8343 50.5957 41.6833 50.4667L39.7916 48.8667C39.6237 48.723 39.5197 48.5185 39.5025 48.2981C39.4853 48.0778 39.5563 47.8596 39.7 47.6917C39.8436 47.5237 40.0481 47.4197 40.2685 47.4025C40.4889 47.3853 40.707 47.4563 40.875 47.6L42.1 48.6333L44.675 45.3C44.7388 45.2058 44.8213 45.1257 44.9172 45.0647C45.0132 45.0036 45.1207 44.9628 45.233 44.9448C45.3453 44.9268 45.4602 44.932 45.5704 44.9601C45.6806 44.9882 45.784 45.0385 45.874 45.1081C45.9641 45.1776 46.0389 45.2648 46.094 45.3644C46.149 45.4639 46.1831 45.5737 46.1941 45.6869C46.2051 45.8002 46.1929 45.9144 46.158 46.0227C46.1232 46.131 46.0666 46.2311 45.9917 46.3167L42.8833 50.3167C42.8139 50.4056 42.7271 50.4796 42.6283 50.534C42.5295 50.5884 42.4206 50.6222 42.3083 50.6333L42.225 50.6667Z" fill="#F9F6F6"/>
<defs>
<filter id="filter0_d_1_561" x="0.5" y="0.166687" width="103" height="99.6667" filterUnits="userSpaceOnUse" color-interpolation-filters="sRGB">
<feFlood flood-opacity="0" result="BackgroundImageFix"/>
<feColorMatrix in="SourceAlpha" type="matrix" values="0 0 0 0 0 0 0 0 0 0 0 0 0 0 0 0 0 0 127 0" result="hardAlpha"/>
<feOffset dy="5"/>
<feGaussianBlur stdDeviation="17"/>
<feComposite in2="hardAlpha" operator="out"/>
<feColorMatrix type="matrix" values="0 0 0 0 0.113725 0 0 0 0 0.313726 0 0 0 0 0.611765 0 0 0 0.35 0"/>
<feBlend mode="normal" in2="BackgroundImageFix" result="effect1_dropShadow_1_561"/>
<feBlend mode="normal" in="SourceGraphic" in2="effect1_dropShadow_1_561" result="shape"/>
</filter>
</defs>
</svg>
