<svg width="95" height="100" viewBox="0 0 95 100" fill="none" xmlns="http://www.w3.org/2000/svg">
<g filter="url(#filter0_d_1_529)">
<path d="M58 29.1667H28C26.6193 29.1667 25.5 30.286 25.5 31.6667V58.3334C25.5 59.7141 26.6193 60.8334 28 60.8334H58C59.3807 60.8334 60.5 59.7141 60.5 58.3334V31.6667C60.5 30.286 59.3807 29.1667 58 29.1667Z" fill="#E1814B"/>
</g>
<path d="M58 29.1667H28C26.6193 29.1667 25.5 30.286 25.5 31.6667V55C25.5 56.3807 26.6193 57.5 28 57.5H58C59.3807 57.5 60.5 56.3807 60.5 55V31.6667C60.5 30.286 59.3807 29.1667 58 29.1667Z" fill="#FBAB32"/>
<path d="M54.6666 36.6667H40.5C40.279 36.6667 40.067 36.5789 39.9107 36.4226C39.7544 36.2663 39.6666 36.0543 39.6666 35.8333C39.6666 35.6123 39.7544 35.4004 39.9107 35.2441C40.067 35.0878 40.279 35 40.5 35H54.6666C54.8877 35 55.0996 35.0878 55.2559 35.2441C55.4122 35.4004 55.5 35.6123 55.5 35.8333C55.5 36.0543 55.4122 36.2663 55.2559 36.4226C55.0996 36.5789 54.8877 36.6667 54.6666 36.6667Z" fill="#F9F6F6"/>
<path d="M49.6666 40.8333H40.5C40.279 40.8333 40.067 40.7455 39.9107 40.5892C39.7544 40.433 39.6666 40.221 39.6666 40C39.6666 39.779 39.7544 39.567 39.9107 39.4107C40.067 39.2545 40.279 39.1667 40.5 39.1667H49.6666C49.8877 39.1667 50.0996 39.2545 50.2559 39.4107C50.4122 39.567 50.5 39.779 50.5 40C50.5 40.221 50.4122 40.433 50.2559 40.5892C50.0996 40.7455 49.8877 40.8333 49.6666 40.8333Z" fill="#F9F6F6"/>
<path d="M33.225 40.6667C33.0264 40.6667 32.8343 40.5958 32.6833 40.4667L30.7916 38.8667C30.6237 38.723 30.5197 38.5185 30.5025 38.2981C30.4853 38.0778 30.5563 37.8596 30.7 37.6917C30.8436 37.5237 31.0481 37.4197 31.2685 37.4025C31.4889 37.3853 31.707 37.4563 31.875 37.6L33.1 38.6333L35.675 35.3C35.8147 35.1404 36.0101 35.0401 36.2212 35.0196C36.4323 34.999 36.6433 35.0598 36.8112 35.1894C36.9791 35.319 37.0913 35.5078 37.1248 35.7173C37.1583 35.9267 37.1107 36.1411 36.9917 36.3167L33.8833 40.3167C33.8139 40.4056 33.7271 40.4796 33.6283 40.534C33.5295 40.5884 33.4206 40.6222 33.3083 40.6333L33.225 40.6667Z" fill="#F9F6F6"/>
<path d="M54.6666 46.6667H40.5C40.279 46.6667 40.067 46.5789 39.9107 46.4226C39.7544 46.2663 39.6666 46.0543 39.6666 45.8333C39.6666 45.6123 39.7544 45.4004 39.9107 45.2441C40.067 45.0878 40.279 45 40.5 45H54.6666C54.8877 45 55.0996 45.0878 55.2559 45.2441C55.4122 45.4004 55.5 45.6123 55.5 45.8333C55.5 46.0543 55.4122 46.2663 55.2559 46.4226C55.0996 46.5789 54.8877 46.6667 54.6666 46.6667Z" fill="#F9F6F6"/>
<path d="M49.6666 50.8333H40.5C40.279 50.8333 40.067 50.7455 39.9107 50.5892C39.7544 50.433 39.6666 50.221 39.6666 50C39.6666 49.779 39.7544 49.567 39.9107 49.4107C40.067 49.2545 40.279 49.1667 40.5 49.1667H49.6666C49.8877 49.1667 50.0996 49.2545 50.2559 49.4107C50.4122 49.567 50.5 49.779 50.5 50C50.5 50.221 50.4122 50.433 50.2559 50.5892C50.0996 50.7455 49.8877 50.8333 49.6666 50.8333Z" fill="#F9F6F6"/>
<path d="M33.225 50.6667C33.0264 50.6667 32.8343 50.5957 32.6833 50.4667L30.7916 48.8667C30.6237 48.723 30.5197 48.5185 30.5025 48.2981C30.4853 48.0778 30.5563 47.8596 30.7 47.6917C30.8436 47.5237 31.0481 47.4197 31.2685 47.4025C31.4889 47.3853 31.707 47.4563 31.875 47.6L33.1 48.6333L35.675 45.3C35.7388 45.2058 35.8213 45.1257 35.9172 45.0647C36.0132 45.0036 36.1207 44.9628 36.233 44.9448C36.3453 44.9268 36.4602 44.932 36.5704 44.9601C36.6806 44.9882 36.784 45.0385 36.874 45.1081C36.9641 45.1776 37.0389 45.2648 37.094 45.3644C37.149 45.4639 37.1831 45.5737 37.1941 45.6869C37.2051 45.8002 37.1929 45.9144 37.158 46.0227C37.1232 46.131 37.0666 46.2311 36.9917 46.3167L33.8833 50.3167C33.8139 50.4056 33.7271 50.4796 33.6283 50.534C33.5295 50.5884 33.4206 50.6222 33.3083 50.6333L33.225 50.6667Z" fill="#F9F6F6"/>
<defs>
<filter id="filter0_d_1_529" x="-8.5" y="0.166687" width="103" height="99.6667" filterUnits="userSpaceOnUse" color-interpolation-filters="sRGB">
<feFlood flood-opacity="0" result="BackgroundImageFix"/>
<feColorMatrix in="SourceAlpha" type="matrix" values="0 0 0 0 0 0 0 0 0 0 0 0 0 0 0 0 0 0 127 0" result="hardAlpha"/>
<feOffset dy="5"/>
<feGaussianBlur stdDeviation="17"/>
<feComposite in2="hardAlpha" operator="out"/>
<feColorMatrix type="matrix" values="0 0 0 0 0.882353 0 0 0 0 0.505882 0 0 0 0 0.294118 0 0 0 0.35 0"/>
<feBlend mode="normal" in2="BackgroundImageFix" result="effect1_dropShadow_1_529"/>
<feBlend mode="normal" in="SourceGraphic" in2="effect1_dropShadow_1_529" result="shape"/>
</filter>
</defs>
</svg>
