<svg width="36" height="32" viewBox="0 0 36 32" fill="none" xmlns="http://www.w3.org/2000/svg">
<path d="M33 0.166687H3C1.61929 0.166687 0.5 1.28598 0.5 2.66669V29.3334C0.5 30.7141 1.61929 31.8334 3 31.8334H33C34.3807 31.8334 35.5 30.7141 35.5 29.3334V2.66669C35.5 1.28598 34.3807 0.166687 33 0.166687Z" fill="#517A24"/>
<path d="M33 0.166687H3C1.61929 0.166687 0.5 1.28598 0.5 2.66669V26C0.5 27.3807 1.61929 28.5 3 28.5H33C34.3807 28.5 35.5 27.3807 35.5 26V2.66669C35.5 1.28598 34.3807 0.166687 33 0.166687Z" fill="#6CA42E"/>
<path d="M29.6666 7.66667H15.5C15.279 7.66667 15.067 7.57887 14.9107 7.42259C14.7544 7.26631 14.6666 7.05435 14.6666 6.83333C14.6666 6.61232 14.7544 6.40036 14.9107 6.24408C15.067 6.0878 15.279 6 15.5 6H29.6666C29.8877 6 30.0996 6.0878 30.2559 6.24408C30.4122 6.40036 30.5 6.61232 30.5 6.83333C30.5 7.05435 30.4122 7.26631 30.2559 7.42259C30.0996 7.57887 29.8877 7.66667 29.6666 7.66667Z" fill="#F9F6F6"/>
<path d="M24.6666 11.8334H15.5C15.279 11.8334 15.067 11.7456 14.9107 11.5893C14.7544 11.433 14.6666 11.221 14.6666 11C14.6666 10.779 14.7544 10.567 14.9107 10.4108C15.067 10.2545 15.279 10.1667 15.5 10.1667H24.6666C24.8877 10.1667 25.0996 10.2545 25.2559 10.4108C25.4122 10.567 25.5 10.779 25.5 11C25.5 11.221 25.4122 11.433 25.2559 11.5893C25.0996 11.7456 24.8877 11.8334 24.6666 11.8334Z" fill="#F9F6F6"/>
<path d="M8.22498 11.6667C8.02636 11.6667 7.83427 11.5958 7.68332 11.4667L5.79165 9.86669C5.62368 9.72304 5.51966 9.51853 5.50247 9.29818C5.48527 9.07782 5.55632 8.85967 5.69998 8.6917C5.84364 8.52372 6.04814 8.4197 6.2685 8.40251C6.48885 8.38532 6.70701 8.45637 6.87498 8.60003L8.09998 9.63336L10.675 6.30003C10.8147 6.14044 11.0101 6.04016 11.2212 6.01961C11.4323 5.99906 11.6433 6.05979 11.8112 6.18943C11.9791 6.31907 12.0913 6.50786 12.1248 6.71732C12.1583 6.92677 12.1107 7.14113 11.9917 7.31669L8.88332 11.3167C8.81391 11.4057 8.72715 11.4796 8.62831 11.534C8.52947 11.5885 8.42061 11.6223 8.30832 11.6334L8.22498 11.6667Z" fill="#F9F6F6"/>
<path d="M29.6666 17.6667H15.5C15.279 17.6667 15.067 17.5789 14.9107 17.4226C14.7544 17.2663 14.6666 17.0543 14.6666 16.8333C14.6666 16.6123 14.7544 16.4004 14.9107 16.2441C15.067 16.0878 15.279 16 15.5 16H29.6666C29.8877 16 30.0996 16.0878 30.2559 16.2441C30.4122 16.4004 30.5 16.6123 30.5 16.8333C30.5 17.0543 30.4122 17.2663 30.2559 17.4226C30.0996 17.5789 29.8877 17.6667 29.6666 17.6667Z" fill="#F9F6F6"/>
<path d="M24.6666 21.8334H15.5C15.279 21.8334 15.067 21.7456 14.9107 21.5893C14.7544 21.433 14.6666 21.221 14.6666 21C14.6666 20.779 14.7544 20.567 14.9107 20.4108C15.067 20.2545 15.279 20.1667 15.5 20.1667H24.6666C24.8877 20.1667 25.0996 20.2545 25.2559 20.4108C25.4122 20.567 25.5 20.779 25.5 21C25.5 21.221 25.4122 21.433 25.2559 21.5893C25.0996 21.7456 24.8877 21.8334 24.6666 21.8334Z" fill="#F9F6F6"/>
<path d="M8.22498 21.6667C8.02636 21.6667 7.83427 21.5957 7.68332 21.4667L5.79165 19.8667C5.62368 19.723 5.51966 19.5185 5.50247 19.2981C5.48527 19.0778 5.55632 18.8596 5.69998 18.6917C5.84364 18.5237 6.04814 18.4197 6.2685 18.4025C6.48885 18.3853 6.70701 18.4563 6.87498 18.6L8.09998 19.6333L10.675 16.3C10.7388 16.2058 10.8213 16.1257 10.9172 16.0647C11.0132 16.0036 11.1207 15.9628 11.233 15.9448C11.3453 15.9268 11.4602 15.932 11.5704 15.9601C11.6806 15.9882 11.784 16.0385 11.874 16.1081C11.9641 16.1776 12.0389 16.2648 12.094 16.3644C12.149 16.4639 12.1831 16.5737 12.1941 16.6869C12.2051 16.8002 12.1929 16.9144 12.158 17.0227C12.1232 17.131 12.0666 17.2311 11.9917 17.3167L8.88332 21.3167C8.81391 21.4056 8.72715 21.4796 8.62831 21.534C8.52947 21.5884 8.42061 21.6222 8.30832 21.6333L8.22498 21.6667Z" fill="#F9F6F6"/>
</svg>
