<svg width="106" height="107" viewBox="0 0 106 107" fill="none" xmlns="http://www.w3.org/2000/svg">
<g filter="url(#filter0_d_1_444)">
<path d="M13.3707 33.4422L28.3891 86.7267L82.8074 71.3887C87.8164 69.9769 90.7326 64.7717 89.3208 59.7627L76.8587 15.5479C76.6822 14.9218 76.0315 14.5572 75.4054 14.7337L14.1849 31.9889C13.5588 32.1654 13.1943 32.8161 13.3707 33.4422Z" fill="#FEEFCD"/>
</g>
<path d="M19.8535 30.3912L14.1849 31.9889C13.5588 32.1654 13.1943 32.8161 13.3707 33.4422L28.3891 86.7267L34.0577 85.129L19.0393 31.8445C18.8628 31.2184 19.2274 30.5677 19.8535 30.3912Z" fill="#FDE8B4"/>
<path d="M70.111 65.1771L17.9779 79.8709C17.2835 80.0666 16.9313 80.833 17.2241 81.4923C19.0943 85.7045 23.8232 88.0136 28.389 86.7267L82.8072 71.3888C78.1363 72.7053 73.2949 70.2584 71.5177 65.8605C71.2943 65.3072 70.6855 65.0151 70.111 65.1771Z" fill="#FDE09B"/>
<path d="M44.445 30.8027C44.1549 30.8844 43.8335 30.8556 43.5497 30.6966L29.7438 22.962C29.1762 22.6441 28.9739 21.9263 29.2919 21.3587C29.6099 20.7912 30.3277 20.5889 30.8952 20.9069L44.7011 28.6415C45.2687 28.9594 45.471 29.6772 45.1529 30.2447C44.9941 30.5284 44.7351 30.7209 44.445 30.8027Z" fill="#C9BFCB"/>
<path d="M31.9172 27.6029C35.0479 26.7205 36.8705 23.4673 35.9881 20.3366C35.1057 17.2059 31.8525 15.3834 28.7218 16.2657C25.5912 17.1481 23.7686 20.4014 24.651 23.532C25.5333 26.6627 28.7866 28.4853 31.9172 27.6029Z" fill="#FFBB55"/>
<path d="M33.9526 23.9698C30.822 24.8521 27.5687 23.0295 26.6864 19.8989C26.452 19.0673 26.4102 18.2275 26.5313 17.4253C24.815 18.8691 24.003 21.233 24.6509 23.532C25.5333 26.6626 28.7866 28.4853 31.9172 27.6029C34.2162 26.9549 35.8081 25.0279 36.1431 22.8102C35.5223 23.3326 34.7842 23.7354 33.9526 23.9698Z" fill="#FF8616"/>
<path d="M35.6642 43.0678L28.8619 44.985C28.2358 45.1615 27.8713 45.8122 28.0477 46.4383C28.2242 47.0644 28.8749 47.4289 29.501 47.2525L31.7684 46.6134L34.0052 54.5494C34.1817 55.1755 34.8323 55.54 35.4584 55.3635C36.0845 55.1871 36.4491 54.5364 36.2726 53.9103L34.0358 45.9743L36.3033 45.3352C36.9294 45.1587 37.2939 44.508 37.1174 43.882C36.941 43.2559 36.2903 42.8913 35.6642 43.0678Z" fill="#6F5575"/>
<path d="M44.5281 52.8072C42.0276 53.512 39.2766 51.5425 38.3956 48.4168C37.5146 45.2912 38.8322 42.1749 41.3327 41.4701C43.8333 40.7653 46.5843 42.7348 47.4653 45.8605C48.3463 48.9861 47.0287 52.1024 44.5281 52.8072ZM41.9718 43.7375C40.7427 44.0839 40.1434 45.9342 40.663 47.7777C41.1826 49.6213 42.66 50.8862 43.8891 50.5398C45.1181 50.1934 45.7175 48.3431 45.1979 46.4996C44.6783 44.656 43.2009 43.3911 41.9718 43.7375Z" fill="#6F5575"/>
<path d="M69.4699 45.7773C66.9693 46.4821 64.2183 44.5126 63.3373 41.3869C62.4563 38.2613 63.7739 35.145 66.2744 34.4402C68.775 33.7354 71.526 35.7049 72.407 38.8306C73.288 41.9562 71.9704 45.0725 69.4699 45.7773ZM66.9135 36.7076C65.6844 37.054 65.0851 38.9043 65.6047 40.7478C66.1243 42.5914 67.6017 43.8563 68.8308 43.5099C70.0599 43.1635 70.6592 41.3132 70.1396 39.4697C69.62 37.6261 68.1426 36.3612 66.9135 36.7076Z" fill="#6F5575"/>
<path d="M54.7316 49.9314C54.1055 50.1078 53.4548 49.7433 53.2783 49.1172L50.4025 38.9138C50.3085 38.5805 50.366 38.2228 50.5596 37.9357C50.7531 37.6487 51.0626 37.4611 51.4073 37.4234C51.7385 37.387 59.5386 36.5933 61.0699 42.026C62.3337 46.51 57.4764 49.1577 54.7316 49.9314ZM53.0787 39.725L55.2015 47.2568C56.7969 46.5811 59.4776 45.0605 58.8024 42.6651C58.1129 40.2187 54.956 39.7697 53.0787 39.725Z" fill="#6F5575"/>
<path d="M66.5327 52.7241L43.8584 59.1149C43.2323 59.2913 42.5816 58.9268 42.4052 58.3007C42.2287 57.6746 42.5933 57.0239 43.2193 56.8475L65.8936 50.4566C66.5197 50.2802 67.1704 50.6447 67.3469 51.2708C67.5233 51.8969 67.1588 52.5476 66.5327 52.7241Z" fill="#F79235"/>
<path d="M62.4618 59.9903L47.7236 64.1444C47.0975 64.3208 46.4468 63.9563 46.2703 63.3302C46.0938 62.7041 46.4584 62.0534 47.0845 61.8769L61.8228 57.7229C62.4489 57.5465 63.0996 57.911 63.276 58.5371C63.4525 59.1632 63.0879 59.8139 62.4618 59.9903Z" fill="#F79235"/>
<defs>
<filter id="filter0_d_1_444" x="9.32626" y="6.68925" width="104.35" height="100.037" filterUnits="userSpaceOnUse" color-interpolation-filters="sRGB">
<feFlood flood-opacity="0" result="BackgroundImageFix"/>
<feColorMatrix in="SourceAlpha" type="matrix" values="0 0 0 0 0 0 0 0 0 0 0 0 0 0 0 0 0 0 127 0" result="hardAlpha"/>
<feOffset dx="10" dy="6"/>
<feGaussianBlur stdDeviation="7"/>
<feComposite in2="hardAlpha" operator="out"/>
<feColorMatrix type="matrix" values="0 0 0 0 0.027451 0 0 0 0 0.184314 0 0 0 0 0.168627 0 0 0 0.5 0"/>
<feBlend mode="normal" in2="BackgroundImageFix" result="effect1_dropShadow_1_444"/>
<feBlend mode="normal" in="SourceGraphic" in2="effect1_dropShadow_1_444" result="shape"/>
</filter>
</defs>
</svg>
