<svg width="19" height="20" viewBox="0 0 19 20" fill="none" xmlns="http://www.w3.org/2000/svg">
<path fill-rule="evenodd" clip-rule="evenodd" d="M17.1842 4.54346L17.8066 5.62355V5.63271C18.3264 6.54343 18.0161 7.70283 17.111 8.23225C16.8213 8.39814 16.5812 8.63827 16.4153 8.9279C16.1602 9.36576 16.0902 9.88724 16.2208 10.3769C16.3514 10.8665 16.6717 11.2839 17.111 11.5366C17.5502 11.7893 17.8706 12.2067 18.0012 12.6963C18.1317 13.1859 18.0617 13.7074 17.8066 14.1453L17.1476 15.2437C16.6179 16.1543 15.4517 16.4653 14.5389 15.9393C14.2596 15.7797 13.9451 15.6917 13.6236 15.6831C13.1154 15.6806 12.6274 15.8814 12.2681 16.2407C11.9088 16.6 11.7081 17.088 11.7105 17.5961C11.7055 18.6491 10.8505 19.5 9.79747 19.5H8.54347C7.48692 19.5 6.63043 18.6435 6.63043 17.5869C6.62708 17.2646 6.53867 16.9488 6.37413 16.6716C6.12321 16.233 5.70746 15.9128 5.21931 15.7821C4.73116 15.6515 4.21105 15.7213 3.77459 15.976C3.33061 16.2248 2.80575 16.2865 2.31616 16.1474C1.82657 16.0082 1.41262 15.6797 1.16589 15.2345L0.534316 14.1453C0.00919667 13.2353 0.320526 12.0719 1.22997 11.5457C1.82187 11.204 2.1865 10.5725 2.1865 9.889C2.1865 9.20553 1.82187 8.57398 1.22997 8.23225C0.31937 7.70255 0.00837961 6.53633 0.534316 5.62355L1.20251 4.52516C1.72908 3.61123 2.89603 3.29595 3.8112 3.82035C4.08843 3.98488 4.40418 4.07329 4.72654 4.07664C5.77245 4.07675 6.62457 3.23686 6.63958 2.19106C6.63714 1.68453 6.83666 1.19791 7.19397 0.838884C7.55128 0.479853 8.03694 0.278009 8.54347 0.278015H9.79747C10.3145 0.277802 10.8096 0.486876 11.17 0.857608C11.5304 1.22834 11.7254 1.72916 11.7105 2.24598C11.7139 2.56833 11.8023 2.88409 11.9668 3.16131C12.2226 3.59746 12.6413 3.91396 13.1307 4.04103C13.6201 4.16809 14.1399 4.09528 14.5755 3.83866C15.4907 3.31426 16.6576 3.62954 17.1842 4.54346ZM9.17507 12.5252C10.631 12.5252 11.8112 11.3449 11.8112 9.88902C11.8112 8.43312 10.631 7.25287 9.17507 7.25287C7.71916 7.25287 6.53891 8.43312 6.53891 9.88902C6.53891 11.3449 7.71916 12.5252 9.17507 12.5252Z" fill="#B4C1C0"/>
</svg>
